<?xml version="1.0" encoding="UTF-8" standalone="no"?>
<!-- Created with Inkscape (http://www.inkscape.org/) -->

<svg
   xmlns:dc="http://purl.org/dc/elements/1.1/"
   xmlns:cc="http://creativecommons.org/ns#"
   xmlns:rdf="http://www.w3.org/1999/02/22-rdf-syntax-ns#"
   xmlns:svg="http://www.w3.org/2000/svg"
   xmlns="http://www.w3.org/2000/svg"
   xmlns:sodipodi="http://sodipodi.sourceforge.net/DTD/sodipodi-0.dtd"
   xmlns:inkscape="http://www.inkscape.org/namespaces/inkscape"
   id="svg2"
   version="1.1"
   inkscape:version="0.48.4 r9939"
   width="308.42188"
   height="403.73407"
   xml:space="preserve"
   sodipodi:docname="surface0010.svg"
   inkscape:export-filename="C:\Users\User\Desktop\sticker2.png"
   inkscape:export-xdpi="24.963432"
   inkscape:export-ydpi="24.963432"><metadata
     id="metadata8"><rdf:RDF><cc:Work
         rdf:about=""><dc:format>image/svg+xml</dc:format><dc:type
           rdf:resource="http://purl.org/dc/dcmitype/StillImage" /><dc:title /></cc:Work></rdf:RDF></metadata><defs
     id="defs6"><clipPath
       clipPathUnits="userSpaceOnUse"
       id="clipPath18"><path
         d="M 0,2494.84 0,0 l 1804.34,0 0,2494.84 -1804.34,0 z"
         id="path20"
         inkscape:connector-curvature="0" /></clipPath></defs><sodipodi:namedview
     pagecolor="#ffffff"
     bordercolor="#666666"
     borderopacity="1"
     objecttolerance="10"
     gridtolerance="10"
     guidetolerance="10"
     inkscape:pageopacity="0"
     inkscape:pageshadow="2"
     inkscape:window-width="1881"
     inkscape:window-height="1080"
     id="namedview4"
     showgrid="false"
     inkscape:zoom="1"
     inkscape:cx="348.75606"
     inkscape:cy="265.90962"
     inkscape:window-x="3"
     inkscape:window-y="-13"
     inkscape:window-maximized="0"
     inkscape:current-layer="g10"
     fit-margin-top="10"
     fit-margin-left="10"
     fit-margin-right="10"
     fit-margin-bottom="10"
     showguides="true"
     inkscape:guide-bbox="true" /><g
     id="g10"
     inkscape:groupmode="layer"
     inkscape:label="ink_ext_XXXXXX"
     transform="matrix(1.25,0,0,-1.25,-351.87928,321.85516)"><path
   inkscape:connector-curvature="0"
   id="path22"
   style="fill:#d33833;fill-opacity:1;fill-rule:evenodd;stroke:none"
   d="m 492.37317,129.264 c 0,-49.4288 -39.175,-89.4992 -87.5,-89.4992 -48.3242,0 -87.49925,40.0704 -87.49925,89.4992 0,49.43 39.17505,89.501 87.49925,89.501 48.325,0 87.5,-40.071 87.5,-89.501" /><path
   inkscape:connector-curvature="0"
   id="path24"
   style="fill:#ef3d3a;fill-opacity:1;fill-rule:nonzero;stroke:none"
   d="m 320.93955,107.098 c 0,0 -6.33438,93.333 79.66602,96 l -5.9996,10 -46.6664,-15.667 -13.3336,-15.333 -11.66642,-22.334 -6.66719,-26 2,-17.333" /><path
   inkscape:connector-curvature="0"
   id="path26"
   style="fill:#231f20;fill-opacity:1;fill-rule:nonzero;stroke:none"
   d="M 344.94347,190.319 C 329.59147,174.611 320.0915,152.923 320.0915,128.93 l 0,0 c 0,-23.988 9.49997,-45.6788 24.85197,-61.3839 l 0,0 C 360.30287,51.841 381.47037,42.15 404.87197,42.15 l 0,0 c 23.4022,0 44.5712,9.691 59.9292,25.3961 l 0,0 c 15.351,15.7051 24.853,37.3959 24.853,61.3839 l 0,0 c 0,23.993 -9.502,45.681 -24.853,61.389 l 0,0 c -15.358,15.702 -36.527,25.393 -59.9292,25.395 l 0,0 c -23.4016,-0.002 -44.5691,-9.693 -59.9285,-25.395 l 0,0 z m -3.886,-126.5721 c -16.3156,16.6859 -26.4023,39.7461 -26.4023,65.1831 l 0,0 c 0,25.441 10.0867,48.499 26.4023,65.186 l 0,0 c 16.3118,16.69 38.8915,27.035 63.8145,27.032 l 0,0 c 24.9232,0.003 47.5052,-10.342 63.8142,-27.032 l 0,0 c 16.317,-16.687 26.405,-39.747 26.403,-65.186 l 0,0 c 0.002,-25.437 -10.086,-48.4972 -26.403,-65.1831 l 0,0 c -16.309,-16.6891 -38.891,-27.0328 -63.8142,-27.0328 l 0,0 c -24.923,0 -47.5027,10.3437 -63.8145,27.0328 l 0,0" />


<g
   id="g4031"
   transform="matrix(0.9130303,0,0,0.9130303,-157.82634,-15.023786)"><rect
     ry="6.2225394"
     transform="scale(1,-1)"
     y="-162.18526"
     x="603.37842"
     height="32.809753"
     width="40.729351"
     id="rect4029"
     style="color:#000000;fill:#f8f8f8;fill-opacity:1;fill-rule:nonzero;stroke:none;stroke-width:0.66900003;marker:none;visibility:visible;display:inline;overflow:visible;enable-background:accumulate" /><path
     d="m 633.83858,98.95337 c -0.13963,-3.327088 0.32727,-8.662621 0.48333,-12.15284 2.21195,-0.0032 3.16029,0.483963 4.81119,1.04071 0.18639,4.106735 -1.30025,7.906223 -1.72861,11.656114 -0.87379,0.233199 -2.47795,-0.61601 -3.56591,-0.543984 z m -34.44231,18.92181 c 1.45859,-13.4088 3.57116,-24.68059 7.44589,-36.554355 8.5997,-2.611131 18.9668,-2.838682 26.56805,-0.482492 -1.39566,6.701599 -0.78596,14.860481 -1.60163,22.012017 -0.61474,5.37527 -0.30137,10.78365 -1.14419,16.26772 -9.21046,1.91614 -22.22913,0.44795 -31.26812,-1.24289 z m 33.44595,1.15873 c -0.0777,-5.75878 0.25778,-11.43934 0.69751,-17.20532 2.21132,0.33195 3.71186,0.55359 5.76649,1.004 -0.66719,5.55098 -0.58505,11.7972 -1.94407,16.70753 -1.57066,-0.015 -2.95369,0.0183 -4.51993,-0.50621 z m 11.2177,0.92825 c -1.04943,0.24059 -2.27134,0.009 -3.27401,-0.0101 0.47132,-4.69437 1.61489,-9.87448 2.01735,-14.80206 1.57762,-0.0491 2.42045,0.69499 3.71818,0.94524 0.0695,4.32541 -0.37782,10.2846 -2.46152,13.86693 z m 16.98546,-15.51897 c 3.28855,0.7986 5.35645,4.82636 4.43654,8.96273 -0.61728,2.77994 -1.71662,8.01458 -2.89304,9.79298 -0.86936,1.31542 -3.22663,3.0376 -5.10878,1.83224 -3.06173,-1.96056 -8.45545,-2.52969 -10.68825,-4.90288 1.11956,-3.72765 1.46705,-8.84774 1.9289,-13.57099 3.82495,-0.23844 8.53127,1.05259 11.71241,-0.31742 -2.2208,-0.71937 -5.10246,-0.72506 -7.02125,-1.77347 1.56814,-0.75741 5.23956,-0.60439 7.63347,-0.0232 z m -30.58128,19.9991 c -2.30988,5.43227 -4.40747,11.06153 -7.8565,15.4388 -3.34155,-2.24101 -7.02131,-4.34865 -7.96043,-8.41811 4.78308,-2.70615 10.3594,-5.37553 15.81693,-7.02069 z m 5.69383,16.82182 c -0.2186,-5.43277 -0.8384,-12.55909 -2.2865,-16.81689 3.45408,4.39819 6.23971,9.51954 9.15107,14.50588 -1.24087,1.99195 -3.83506,3.72878 -6.86457,2.31101 z m -6.45452,2.29346 c -1.30847,0.14089 -2.41918,-1.50433 -4.12064,-0.79292 -0.38982,-0.43089 -0.74426,-0.89779 -1.14167,-1.31858 3.75798,-4.52884 5.46575,-10.95424 8.36826,-16.27644 1.5574,5.11244 1.37797,10.71352 1.72104,16.2935 -2.13992,-0.13584 -3.32708,1.93522 -4.82699,2.09444 z m -4.15033,5.47775 c -0.13963,-1.55108 0.22113,-2.05842 0.53324,-3.83632 5.09867,-1.59405 4.20846,6.99787 -0.53324,3.83632 z m -5.65403,1.85624 c -2.19697,1.20043 -5.4974,2.50764 -8.33509,3.0491 -3.51739,0.67287 -3.1879,-4.79793 -3.0386,-8.06184 0.1172,-2.58408 1.46105,-5.31664 2.04471,-7.03332 0.27395,-0.80164 0.33568,-1.65211 1.021,-1.81126 1.21129,-0.28235 5.20696,1.31542 6.34547,1.93636 2.40794,1.31295 4.27618,3.39791 6.32134,4.79799 0.0265,0.68109 0.0524,1.36154 0.0796,2.04263 -1.2295,0.61285 -2.65043,1.04753 -4.4555,1.12651 1.22444,0.61601 3.02572,0.60716 4.14149,1.34005 0.0107,0.27294 0.0221,0.54525 0.0316,0.81567 -2.03694,0.15668 -2.81343,1.06396 -4.15602,1.79811 z m -20.98453,3.81169 c -1.82339,-1.85119 5.11415,-4.37463 7.32301,-4.51046 -0.0123,1.17136 0.66756,2.27576 0.53059,3.11606 -2.62345,0.46059 -6.07121,0.15669 -7.8536,1.3944 z m 22.46169,-0.86937 c -0.009,-0.1807 -0.2445,-0.11499 -0.28304,-0.2622 2.34589,-1.8335 4.08841,-2.21258 7.28155,-2.05463 1.43989,1.04501 2.71677,2.26692 4.21604,3.24559 -3.45155,-0.30833 -7.79648,-2.45204 -11.21455,-0.92876 z m 20.61708,-6.25171 c -0.0986,2.05652 -0.63876,6.28583 -1.90995,7.0263 -2.66811,1.5574 -7.41108,-3.14449 -9.42022,-3.86159 0.21861,-0.62928 0.57937,-1.12777 0.60717,-1.93206 1.18842,0.29253 2.63526,0.0922 3.6651,-0.41383 -1.19095,-0.13331 -2.51143,-0.12447 -3.29929,-0.69183 -0.28873,-0.83462 0.0708,-1.97186 -0.1213,-3.1306 2.82669,-0.79733 6.05522,-1.22191 9.62871,-1.32679 0.69499,0.90348 0.93191,2.62452 0.84978,4.3304 z m -46.14846,5.33054 c -0.5726,0.40815 -4.44608,5.44806 -4.97673,5.23893 -7.00906,-2.76415 -13.56284,-7.54376 -19.41936,-12.06432 5.58383,-11.98163 7.83786,-26.66099 8.23615,-40.80945 6.39653,-2.99173 12.01492,-7.304557 20.69485,-7.754908 -1.00444,7.106548 -1.92132,13.446838 -2.49146,20.137538 -2.18093,0.91934 -5.30988,-0.0417 -7.35087,0.28507 -0.0173,2.45955 3.11708,1.07703 3.37814,2.73104 0.19675,1.25104 -1.72457,1.34581 -1.09896,3.31578 1.59556,-0.58 2.43346,-1.86111 4.1351,-2.34217 1.55488,3.40164 -0.0217,9.42034 0.20237,12.26347 0.0425,0.53381 0.26656,2.95742 1.46231,2.53215 1.05828,-0.37637 -0.0605,-6.44562 0.0555,-9.13648 0.10564,-2.47914 -0.29941,-4.87798 0.70459,-6.4343 8.38747,1.14167 16.91065,1.87962 25.98577,2.12861 -1.9965,0.85667 -4.3683,1.6674 -6.96868,3.13313 -1.40969,0.79468 -5.8533,2.44824 -6.26006,3.78716 -0.64905,2.13355 1.70291,3.27004 2.10518,5.09912 -4.23379,-2.30906 -5.05981,2.21327 -6.06135,5.41716 -0.90746,2.90188 -1.42403,5.06961 -1.64668,6.74326 -3.64716,1.73873 -7.5466,3.49957 -10.68585,5.72921 z m 42.44418,4.62924 c 5.83978,2.83175 6.89237,-10.58338 4.60334,-14.90492 0.35381,-1.28889 1.57067,-1.78233 2.06726,-2.94106 -3.25885,-5.83782 -6.87846,-11.28714 -10.20365,-17.05628 2.47352,1.53977 6.00657,0.2754 8.9173,1.42794 1.06396,0.42079 1.83413,2.85646 2.63968,4.80495 2.21574,5.36074 4.54205,12.11922 5.57695,17.23495 0.23377,1.16568 0.87063,3.70554 0.72784,4.74297 -0.25462,1.8575 -2.77489,3.23484 -4.05683,4.38346 -2.36168,2.1216 -3.84895,3.98859 -6.31236,5.97246 -0.99889,-1.47464 -3.1426,-2.46531 -3.95953,-3.66447 z m -55.79972,51.78782 c -2.78266,-3.06173 -2.2002,-8.79852 -1.86332,-12.87998 5.02974,3.16408 11.70565,-0.2502 11.64272,-5.63192 2.40136,0.0638 0.8971,2.99918 0.46273,4.89018 -1.41954,6.17653 2.39151,12.88693 0.1728,18.53527 -4.3079,-0.32664 -7.84702,-2.08622 -10.41493,-4.91355 z m 19.91052,17.77016 c -6.29954,-1.78548 -14.37313,-6.36291 -16.96176,-12.02199 2.00447,0.29126 3.39595,1.30215 5.37331,1.42725 0.7473,0.0486 1.72635,-0.31338 2.58523,-0.0998 1.71156,0.42457 3.15605,4.26216 4.44727,5.69004 1.25869,1.39439 2.77155,1.99019 3.80688,3.26138 0.66517,0.32096 1.64864,0.29884 1.68642,1.29773 -0.28829,0.30832 -0.59188,0.54335 -0.93735,0.44542 z m 32.79272,-1.67934 c -6.53855,3.68911 -17.60595,6.464 -24.56124,2.99665 -5.6122,-2.79826 -13.19835,-7.42813 -15.78477,-13.29508 2.41615,-5.66161 -0.71571,-10.84936 -0.91562,-16.59752 -0.10614,-3.05857 1.44008,-5.72858 1.55854,-9.0582 -0.82678,-1.36407 -3.3528,-1.53213 -5.10138,-1.43862 -0.58859,2.94548 -1.61901,6.25614 -4.65211,6.58847 -4.29186,0.46943 -7.42991,-3.08258 -7.62488,-6.79444 -0.23074,-4.36514 3.35273,-11.59994 8.43188,-11.09766 1.96207,0.19396 2.44408,2.16077 4.58185,2.14056 1.15867,-2.31178 -1.78731,-3.03772 -2.09039,-4.69116 -0.079,-0.4271 0.24432,-2.09633 0.43235,-2.87914 0.92256,-3.81168 2.97915,-8.74481 5.00339,-11.6467 2.56917,-3.68089 7.61673,-4.23562 13.04703,-4.59638 0.96989,2.08938 4.54281,1.91753 6.87089,1.37102 -2.79005,1.10503 -5.38393,3.78388 -7.53359,6.15505 -2.46922,2.72055 -4.97047,5.63886 -5.09683,9.19466 4.66619,-6.47348 8.52122,-12.12687 17.00618,-14.97442 6.42028,-2.15319 13.91854,0.98688 18.85168,4.45107 2.04705,1.43988 3.26896,3.72449 4.72401,5.81577 5.44426,7.83123 7.98475,19.00913 7.42624,29.84333 -0.22998,4.46812 -0.21987,8.92109 -1.71914,11.92722 -1.56688,3.14323 -6.86647,5.9554 -9.96863,3.11227 -0.57494,3.05668 2.57966,4.94704 6.2852,3.84706 -2.64221,3.40986 -5.4152,7.50712 -9.17066,9.62619 z m 12.18184,-100.81542 c 5.10941,2.54005 14.65599,6.83683 17.85925,-0.009 1.18211,-2.52355 2.56892,-6.78944 3.18114,-9.39444 0.86494,-3.67508 -0.9376,-11.39966 -4.71517,-12.63288 -3.33656,-1.08911 -7.22975,-1.02277 -11.24866,-0.21545 -0.47322,0.39362 -1.00015,1.07976 -1.36849,1.79496 -2.86966,0.11132 -5.55673,-0.15403 -7.82365,-1.33368 0.21482,-2.12223 -1.22064,-2.46284 -2.56639,-2.899921 -0.99762,-3.955671 1.99587,-9.121438 1.27941,-12.728415 -0.51113,-2.569677 -3.67269,-2.967022 -5.99647,-3.447761 -0.0758,-1.428006 0.10172,-2.620031 0.26031,-3.828108 -0.53135,-1.957859 -2.91452,-3.072404 -5.1726,-3.345359 -7.4294,-0.893414 -18.70984,-1.294711 -25.85594,1.274963 -1.9941,4.89128 -3.56502,10.840422 -5.22597,16.425708 -6.96958,-0.74433 -12.60648,3.007267 -17.92053,5.465116 -1.83988,0.852937 -4.38511,1.322807 -5.07245,2.787337 -0.66637,1.4179 -0.39368,4.13536 -0.55902,6.70232 -0.42079,6.55624 -0.7811,12.87998 -2.51244,19.59291 -0.77737,3.01239 -2.13234,5.67046 -3.07759,8.57303 -0.87366,2.69017 -2.4001,6.01473 -2.7982,8.69737 -0.5903,3.97596 3.15359,4.19709 5.54757,5.92002 3.70073,2.66432 6.60558,4.13769 10.61357,6.54235 1.1871,0.71204 4.76697,2.51458 5.17417,3.34477 0.80947,1.64586 -1.38947,3.96648 -1.97736,5.25662 -0.92996,2.0401 -1.41493,3.77315 -1.54818,5.78608 -3.36215,0.53135 -5.91085,2.53227 -7.45037,4.78845 -2.54668,3.73397 -4.31283,10.64213 -2.10941,15.89686 0.1728,0.41383 1.03458,1.22759 1.1617,1.86319 0.25076,1.25161 -0.4719,2.91578 -0.51682,4.247 -0.23149,6.82981 1.15557,12.71445 5.75341,14.77413 1.86654,7.43572 8.54713,9.90798 14.84124,13.60341 2.35278,1.38112 4.94634,2.26375 7.62488,3.24937 9.60862,3.53622 24.35098,2.87029 32.32562,-3.16092 3.38143,-2.55755 8.78652,-7.95759 10.71985,-11.8672 5.10625,-10.32181 4.74359,-27.57199 1.17199,-40.12786 -0.48017,-1.68565 -1.17642,-4.1636 -2.14877,-6.18853 -0.67792,-1.41398 -2.78499,-4.24321 -2.52911,-5.49165 0.26346,-1.29078 4.80425,-4.73854 5.77786,-5.67741 1.75326,-1.69134 5.08414,-3.93615 5.35392,-6.07038 0.29,-2.27134 -1.00078,-5.37856 -1.6547,-7.5703 -2.18605,-7.31434 -4.31902,-14.07542 -6.7976,-20.59635"
     style="fill:#000000;fill-opacity:1;fill-rule:evenodd;stroke:#000000;stroke-width:0.5352;stroke-miterlimit:4;stroke-opacity:1;stroke-dasharray:none"
     id="path130-3"
     inkscape:connector-curvature="0" /><path
     inkscape:connector-curvature="0"
     id="path3925"
     d="m 600.95077,156.24897 c -4.40508,1.18789 -5.59123,2.24572 -8.10092,7.22453 -1.2754,2.5302 -2.6159,5.99981 -2.97888,7.71025 -0.63217,2.97894 -0.61271,3.16019 0.46216,4.30433 0.72212,0.76867 1.06329,1.67484 0.95709,2.54214 l -0.16501,1.3477 -2.40223,-1.28156 c -2.17799,-1.16194 -2.57901,-1.22373 -4.29627,-0.66198 -3.37491,1.10401 -6.6354,7.33404 -5.89731,11.26838 0.46116,2.45822 3.05564,5.09397 5.45776,5.54462 2.58235,0.48445 4.36009,-0.83116 5.36899,-3.97327 0.71892,-2.23899 0.8534,-2.36137 2.59759,-2.36388 1.03228,-0.001 2.28398,0.38548 2.85253,0.88187 0.95435,0.83323 0.97414,1.06041 0.34117,3.9172 -0.9136,4.12339 -0.89026,7.49002 0.0846,12.20296 0.56162,2.71505 0.72408,5.12408 0.51359,7.6157 l -0.30789,3.64446 2.79492,3.01884 c 2.85224,3.08076 8.92501,7.32389 13.23676,9.24872 1.86754,0.83369 3.41113,1.07239 6.94976,1.07472 9.85506,0.006 18.42954,-4.00961 23.40821,-10.96385 l 1.6741,-2.33839 -1.70516,0 c -2.07195,0 -3.91754,-1.56543 -3.91754,-3.32286 0,-1.09079 0.13244,-1.19083 0.97766,-0.73848 2.67173,1.42987 6.88334,-0.16298 8.71264,-3.29516 1.21549,-2.08121 1.91647,-7.36542 1.90727,-14.37761 -0.0133,-10.09385 -2.14982,-18.46737 -6.60303,-25.87798 -3.14645,-5.23604 -4.46673,-6.62789 -8.27993,-8.72877 -6.91093,-3.80758 -12.93745,-4.31503 -18.63412,-1.56903 -3.41315,1.64525 -8.75684,6.4824 -11.69254,10.58416 -2.99976,4.19127 -3.74617,3.67955 -1.54112,-1.05658 0.75154,-1.61423 2.782,-4.21578 5.22695,-6.69713 3.14952,-3.19642 3.77263,-4.05821 2.93604,-4.06066 -0.58409,-0.001 -1.71347,-0.34289 -2.50973,-0.75817 -1.71873,-0.89638 -4.26308,-0.91872 -7.42813,-0.0652 l 0,0 z"
     style="color:#000000;fill:#000000;fill-opacity:1;fill-rule:nonzero;stroke:#000000;stroke-width:1.5;stroke-opacity:1;marker:none;visibility:visible;display:inline;overflow:visible;enable-background:accumulate" /><path
     inkscape:connector-curvature="0"
     id="path3927"
     d="m 592.38693,191.72368 c -0.004,1.88298 -1.98334,4.31169 -4.37813,5.37101 -2.23632,0.98924 -4.1301,1.03465 -6.36067,0.15253 -0.79409,-0.31404 -0.88424,0.0304 -0.88171,3.36875 0.004,4.82674 0.65408,7.03599 2.66062,9.03722 1.92805,1.92295 6.12247,4.02013 8.05435,4.0271 1.16049,0.004 1.41663,-0.25924 1.69504,-1.7433 0.18039,-0.96154 0.077,-3.61339 -0.22982,-5.89299 -0.70386,-5.23009 -0.70719,-9.74369 -0.009,-12.25805 0.38817,-1.398 0.38737,-2.11177 -0.003,-2.50195 -0.39095,-0.39095 -0.54647,-0.26613 -0.54783,0.43968 l 2e-5,0 z"
     style="color:#000000;fill:#000000;fill-opacity:1;fill-rule:nonzero;stroke:#000000;stroke-width:1.5;stroke-opacity:1;marker:none;visibility:visible;display:inline;overflow:visible;enable-background:accumulate" /><path
     inkscape:connector-curvature="0"
     id="path3931"
     d="m 586.7561,216.5818 c 0.96075,1.79518 5.73655,5.73385 8.87124,7.31623 3.18358,1.60707 6.91707,3.05053 7.18839,2.77922 0.0882,-0.0882 -0.9597,-0.99653 -2.32864,-2.01854 -1.36894,-1.02201 -3.39928,-3.19868 -4.51188,-4.83705 -2.02017,-2.97483 -2.02685,-2.97918 -4.95278,-3.22376 -1.61144,-0.1347 -3.35439,-0.42474 -3.87321,-0.64454 -0.82477,-0.3494 -0.87418,-0.27042 -0.39312,0.62844 z"
     style="color:#000000;fill:#000000;fill-opacity:1;fill-rule:nonzero;stroke:#000000;stroke-width:1.5;stroke-opacity:1;marker:none;visibility:visible;display:inline;overflow:visible;enable-background:accumulate" /><path
     inkscape:connector-curvature="0"
     id="path3933"
     d="m 593.51209,99.217429 c -2.02315,0.689203 -5.91336,2.374631 -8.64491,3.745381 l -4.96647,2.49229 -0.35361,5.71878 c -0.68618,11.09729 -2.69246,21.53532 -5.69529,29.63066 -0.95988,2.58776 -1.67159,4.92595 -1.58158,5.19599 0.32373,0.97118 9.34812,7.08311 13.92851,9.43334 l 4.67697,2.39977 2.92888,-3.03267 c 2.10012,-2.17453 4.2854,-3.73752 7.7228,-5.52363 l 4.7939,-2.49097 0.95183,-4.01615 c 0.52351,-2.20887 1.42594,-4.95458 2.0054,-6.10158 0.86787,-1.71785 1.34417,-2.11343 2.70219,-2.24426 1.58058,-0.15228 1.61708,-0.20385 0.88452,-1.24972 -0.42024,-0.59999 -0.76408,-1.71739 -0.76408,-2.4831 0,-1.65656 0.81366,-2.25311 7.14651,-5.2395 l 4.54822,-2.14482 -4.4574,-0.29916 c -2.45156,-0.16454 -7.85574,-0.64111 -12.00929,-1.05905 -6.02163,-0.6059 -7.64145,-0.63188 -7.99382,-0.12819 -0.24305,0.34744 -0.33391,3.60846 -0.2019,7.24671 0.25443,7.0121 -0.11484,8.80808 -1.45086,7.05658 -0.58972,-0.7731 -0.72421,-2.31953 -0.6222,-7.1541 0.0716,-3.39229 -0.0285,-6.32929 -0.22237,-6.52666 -0.19387,-0.19738 -1.13052,0.12198 -2.08144,0.70968 -0.95091,0.5877 -1.87267,1.06854 -2.04835,1.06854 -0.52127,0 -0.363,-1.93518 0.18601,-2.2745 0.98008,-0.60572 0.48788,-1.67628 -1.01089,-2.19876 -0.83398,-0.29073 -1.51633,-0.87163 -1.51633,-1.29091 0,-0.59542 0.79955,-0.79483 3.65199,-0.91082 l 3.65199,-0.14851 0.8428,-7.32894 c 0.46354,-4.03092 1.00674,-8.40933 1.20713,-9.7298 0.36297,-2.391971 0.35896,-2.400817 -1.08305,-2.387938 -0.79604,0.0071 -3.10267,0.576818 -5.12581,1.266017 l 0,0 z"
     style="color:#000000;fill:#000000;fill-opacity:1;fill-rule:nonzero;stroke:#000000;stroke-width:1.5;stroke-opacity:1;marker:none;visibility:visible;display:inline;overflow:visible;enable-background:accumulate" /><path
     inkscape:connector-curvature="0"
     id="path3935"
     d="m 618.16648,79.612902 c -1.25098,0.06772 -4.26002,0.508229 -6.68678,0.978899 l -4.41228,0.855768 -0.76561,2.559211 c -2.57701,8.614166 -5.35212,22.22776 -6.10042,29.92622 l -0.35101,3.61112 1.45003,0.29634 c 7.00937,1.43253 19.74325,2.23719 25.55483,1.61483 3.13911,-0.33617 3.39682,-0.45733 3.64778,-1.71491 0.14851,-0.74425 0.61491,-7.49432 1.03645,-15.00017 0.42153,-7.505849 0.90083,-15.491475 1.06511,-17.745843 l 0.29869,-4.098845 -1.68214,-0.37137 c -2.29048,-0.505672 -10.26462,-1.062292 -13.05465,-0.91125 z"
     style="color:#000000;fill:#000000;fill-opacity:1;fill-rule:nonzero;stroke:#000000;stroke-width:1.5;stroke-opacity:1;marker:none;visibility:visible;display:inline;overflow:visible;enable-background:accumulate" /><path
     inkscape:connector-curvature="0"
     id="path3937"
     d="m 655.5665,104.51103 c -0.35479,0.21928 0.19738,0.5144 1.34283,0.71772 1.06999,0.18991 2.40032,0.48056 2.9563,0.64586 1.01089,0.30056 1.01089,0.30056 0,0.69569 -0.55598,0.21732 -3.21458,0.41112 -5.908,0.43066 l -4.89711,0.0355 -0.28946,2.40086 c -0.1592,1.32047 -0.58733,4.29253 -0.9514,6.60457 l -0.66195,4.20371 1.29952,0.65964 c 0.71474,0.36281 3.3973,1.49387 5.96125,2.51346 4.36818,1.73708 4.75224,1.807 6.09922,1.11046 1.73112,-0.89521 2.80196,-3.18899 4.12354,-8.83278 0.94671,-4.04291 0.95238,-4.34213 0.1291,-6.80376 -0.61818,-1.84837 -1.28898,-2.81383 -2.37748,-3.42182 -1.69011,-0.94403 -5.89523,-1.53527 -6.82636,-0.9598 z"
     style="color:#000000;fill:#000000;fill-opacity:1;fill-rule:nonzero;stroke:#000000;stroke-width:1.5;stroke-opacity:1;marker:none;visibility:visible;display:inline;overflow:visible;enable-background:accumulate" /><path
     inkscape:connector-curvature="0"
     id="path3939"
     d="m 642.903,106.34988 c -0.0166,0.51663 -0.42731,3.72559 -0.91261,7.13102 l -0.88235,6.19169 1.36317,0 c 1.11437,0 1.50813,-0.36229 2.15744,-1.98508 0.95713,-2.39209 2.05358,-10.64658 1.48745,-11.19797 -0.2216,-0.21583 -1.02839,-0.54689 -1.79288,-0.73569 -1.13571,-0.28049 -1.3955,-0.17146 -1.42022,0.59603 z"
     style="color:#000000;fill:#000000;fill-opacity:1;fill-rule:nonzero;stroke:#000000;stroke-width:1.5;stroke-opacity:1;marker:none;visibility:visible;display:inline;overflow:visible;enable-background:accumulate" /><path
     inkscape:connector-curvature="0"
     id="path3941"
     d="m 633.58272,105.21485 c -0.17445,1.69689 -0.24586,5.47347 -0.15869,8.39241 l 0.1585,5.30717 1.83335,0.15317 1.83335,0.15317 0.54903,-3.94401 c 0.88335,-6.34553 1.25848,-12.28202 0.77762,-12.30584 -0.24439,-0.0121 -1.39646,-0.20636 -2.56016,-0.43167 l -2.11581,-0.40965 -0.31719,3.08525 z"
     style="color:#000000;fill:#000000;fill-opacity:1;fill-rule:nonzero;stroke:#000000;stroke-width:1.5;stroke-opacity:1;marker:none;visibility:visible;display:inline;overflow:visible;enable-background:accumulate" /><path
     inkscape:connector-curvature="0"
     id="path3943"
     d="m 634.3407,93.01129 0,5.820242 1.38997,0.267011 c 0.76448,0.146857 1.42558,0.230235 1.46909,0.185286 0.33174,-0.342701 1.83449,-10.972706 1.58629,-11.220909 -0.17507,-0.175071 -1.2469,-0.44286 -2.38183,-0.59509 l -2.06352,-0.276776 0,5.820236 z"
     style="color:#000000;fill:#000000;fill-opacity:1;fill-rule:nonzero;stroke:#000000;stroke-width:1.5;stroke-opacity:1;marker:none;visibility:visible;display:inline;overflow:visible;enable-background:accumulate" /><path
     inkscape:connector-curvature="0"
     id="path3945"
     d="m 640.27799,131.24082 c 2.57237,4.31194 4.67704,8.08517 4.67704,8.38497 0,0.2998 -0.34908,1.04347 -0.77572,1.65259 -0.65399,0.9337 -0.68751,1.61408 -0.21358,4.33557 0.95148,5.46379 -0.87481,12.0057 -3.45634,12.38086 -1.06355,0.15457 -1.0469,0.21348 0.40612,1.43612 l 1.51518,1.27493 4.67392,-4.39315 c 2.57065,-2.41624 4.83362,-4.67186 5.02881,-5.01248 0.81262,-1.4181 -2.07959,-11.98702 -6.12224,-22.37225 -1.80518,-4.63736 -2.25111,-4.94893 -7.62861,-5.32995 l -2.78162,-0.19709 4.67704,7.83988 z"
     style="color:#000000;fill:#000000;fill-opacity:1;fill-rule:nonzero;stroke:#000000;stroke-width:1.5;stroke-opacity:1;marker:none;visibility:visible;display:inline;overflow:visible;enable-background:accumulate" /><path
     inkscape:connector-curvature="0"
     id="path3947"
     d="m 624.48453,152.21521 -2.02177,0.62194 2.52722,0.32423 c 1.38997,0.17833 3.32329,0.47278 4.29627,0.65434 l 1.76906,0.33009 -1.51633,-1.29693 c -1.70208,-1.45581 -2.18503,-1.51635 -5.05445,-0.63367 z"
     style="color:#000000;fill:#000000;fill-opacity:1;fill-rule:nonzero;stroke:#000000;stroke-width:1.5;stroke-opacity:1;marker:none;visibility:visible;display:inline;overflow:visible;enable-background:accumulate" /><path
     inkscape:connector-curvature="0"
     id="path3949"
     d="m 603.38683,151.22391 c -2.04227,0.72889 -4.6329,2.27626 -4.32555,2.58362 0.19298,0.19297 7.05328,-0.68587 7.30295,-0.93555 0.25075,-0.25075 -0.44112,-2.36764 -0.76645,-2.3451 -0.17607,0.0122 -1.171,0.32587 -2.21095,0.69703 z"
     style="color:#000000;fill:#000000;fill-opacity:1;fill-rule:nonzero;stroke:#000000;stroke-width:1.5;stroke-opacity:1;marker:none;visibility:visible;display:inline;overflow:visible;enable-background:accumulate" /><path
     inkscape:connector-curvature="0"
     id="path3951"
     d="m 630.09873,131.6776 c -1.32201,3.05859 -2.95545,6.37307 -3.62985,7.36554 -1.71858,2.52912 -1.56337,3.06638 1.06181,3.67545 1.9405,0.45022 2.51808,0.39091 3.80304,-0.39053 0.83329,-0.50675 1.85074,-0.92136 2.26102,-0.92136 0.8701,0 0.87217,-0.0568 0.26623,-7.32894 -0.7352,-8.82349 -0.93168,-8.94884 -3.76225,-2.40016 z"
     style="color:#000000;fill:#000000;fill-opacity:1;fill-rule:nonzero;stroke:#000000;stroke-width:1.5;stroke-opacity:1;marker:none;visibility:visible;display:inline;overflow:visible;enable-background:accumulate" /><path
     inkscape:connector-curvature="0"
     id="path3953"
     d="m 635.02556,127.7597 c 0.17432,0.69499 0.56384,3.87231 0.86561,7.06071 0.30176,3.1884 0.6584,5.97466 0.79254,6.19169 0.76421,1.23653 5.7441,-0.64332 5.7441,-2.16834 0,-0.55518 -6.40008,-11.11094 -7.18007,-11.84222 -0.37703,-0.35348 -0.44383,-0.12552 -0.22218,0.75816 z"
     style="color:#000000;fill:#000000;fill-opacity:1;fill-rule:nonzero;stroke:#000000;stroke-width:1.5;stroke-opacity:1;marker:none;visibility:visible;display:inline;overflow:visible;enable-background:accumulate" /><path
     inkscape:connector-curvature="0"
     id="path3955"
     d="m 627.76992,125.57899 c -3.31969,1.16778 -12.63611,6.01933 -12.63611,6.5803 0,0.91593 4.04737,5.21278 5.9712,6.33925 l 1.50746,0.88269 1.54898,-2.41389 c 1.39137,-2.16825 3.99496,-7.49953 5.16363,-10.57337 0.45471,-1.19596 0.0824,-1.39104 -1.55516,-0.81498 z"
     style="color:#000000;fill:#000000;fill-opacity:1;fill-rule:nonzero;stroke:#000000;stroke-width:1.5;stroke-opacity:1;marker:none;visibility:visible;display:inline;overflow:visible;enable-background:accumulate" /></g></g></svg>